<svg width="20" height="20" viewBox="0 0 20 20" fill="none" xmlns="http://www.w3.org/2000/svg">
<path d="M10.0016 7.50591C9.08113 7.50591 8.33496 8.06555 8.33496 8.75593C8.33496 9.44626 9.08113 10.0059 10.0016 10.0059C10.922 10.0059 11.6683 10.5656 11.6683 11.2559C11.6683 11.9463 10.922 12.5059 10.0016 12.5059M10.0016 7.50591C10.7273 7.50591 11.3446 7.85374 11.5734 8.33926M10.0016 7.50591V6.67258M10.0016 12.5059C9.27588 12.5059 8.65854 12.1581 8.42979 11.6726M10.0016 12.5059V13.3393" stroke="white" stroke-width="1.25" stroke-linecap="round"/>
<path d="M10.8334 2.08923C10.8334 2.08923 10.57 2.08923 10 2.08923C6.26809 2.08923 4.40212 2.08923 3.24274 3.24861C2.08337 4.40797 2.08337 6.27395 2.08337 10.0059C2.08337 13.7378 2.08337 15.6038 3.24274 16.7632C4.40212 17.9226 6.26809 17.9226 10 17.9226C13.732 17.9226 15.598 17.9226 16.7574 16.7632C17.9167 15.6038 17.9167 13.7378 17.9167 10.0059C17.9167 9.436 17.9167 9.17258 17.9167 9.17258" stroke="white" stroke-width="1.25" stroke-linecap="round"/>
<path d="M17.9069 2.07742L14.4271 5.55926M13.7402 2.51222L13.8387 5.08846C13.8387 5.69566 14.2013 6.07399 14.8617 6.12171L17.4651 6.24409" stroke="white" stroke-width="1.25" stroke-linecap="round" stroke-linejoin="round"/>
</svg>