<svg width="16" height="18" viewBox="0 0 16 18" fill="none" xmlns="http://www.w3.org/2000/svg">
<path fill-rule="evenodd" clip-rule="evenodd" d="M8.21002 1.36942e-07H7.27838C5.7398 -8.23515e-06 4.52114 -2.49383e-05 3.56739 0.128202C2.58583 0.260171 1.79137 0.538217 1.16483 1.16475C0.538301 1.79128 0.260239 2.58575 0.12827 3.5673C3.43198e-05 4.52105 3.42368e-05 5.7397 3.42368e-05 7.27829L7.02956e-07 10.7216C-2.44133e-05 12.2601 -4.95273e-05 13.4789 0.128177 14.4326C0.260138 15.4142 0.538184 16.2087 1.16472 16.8352C1.79126 17.4618 2.58573 17.7398 3.5673 17.8718C4.52106 18 5.73973 18 7.27829 18H8.20994C8.68196 18 9.12459 18 9.53784 17.9963C9.40958 17.6772 9.38027 17.3203 9.46483 16.9742L10.4584 13.1699C9.93953 12.5515 9.62692 11.7542 9.62692 10.8837C9.62692 8.91862 11.22 7.32558 13.1851 7.32558C14.0635 7.32558 14.8676 7.64389 15.4883 8.17149V7.27835C15.4883 5.73978 15.4883 4.52109 15.3601 3.56733C15.2281 2.58577 14.9501 1.7913 14.3236 1.16476C13.697 0.538225 12.9026 0.260171 11.921 0.12821C10.9672 -2.50256e-05 9.74856 -8.23515e-06 8.21002 1.36942e-07ZM3.76907 3.97674C3.76907 3.62996 4.0502 3.34884 4.39698 3.34884H11.0946C11.4414 3.34884 11.7225 3.62996 11.7225 3.97674C11.7225 4.32352 11.4414 4.60465 11.0946 4.60465H4.39698C4.0502 4.60465 3.76907 4.32352 3.76907 3.97674ZM3.76907 7.32558C3.76907 6.9788 4.0502 6.69767 4.39698 6.69767H8.1644C8.51117 6.69767 8.7923 6.9788 8.7923 7.32558C8.7923 7.67235 8.51117 7.95349 8.1644 7.95349H4.39698C4.0502 7.95349 3.76907 7.67235 3.76907 7.32558ZM13.1851 13.3953C14.5722 13.3953 15.6967 12.2709 15.6967 10.8837C15.6967 9.49655 14.5722 8.37209 13.1851 8.37209C11.7979 8.37209 10.6734 9.49655 10.6734 10.8837C10.6734 12.2709 11.7979 13.3953 13.1851 13.3953ZM10.4831 17.216L11.2413 13.8643C11.7999 14.2292 12.4674 14.4413 13.1844 14.4413C13.9289 14.4413 14.6199 14.2126 15.1913 13.8217L15.8897 17.2326C15.9415 17.4602 15.8627 17.6976 15.6852 17.8491C15.5078 18.0007 15.2609 18.0414 15.0442 17.9547L13.1844 17.2108L11.3246 17.9547C11.1051 18.0425 10.8549 17.9996 10.6772 17.8436C10.4995 17.6876 10.4245 17.4451 10.4831 17.216Z" fill="#AC41FF"/>
</svg>
