<svg width="15" height="15" viewBox="0 0 15 15" fill="none" xmlns="http://www.w3.org/2000/svg">
<path d="M9.37499 3.75005V11.2501C9.37499 11.6209 9.48495 11.9834 9.69098 12.2917C9.89701 12.6001 10.1898 12.8404 10.5325 12.9823C10.8751 13.1242 11.2521 13.1614 11.6158 13.089C11.9795 13.0167 12.3136 12.8381 12.5758 12.5759C12.838 12.3137 13.0166 11.9796 13.089 11.6158C13.1613 11.2521 13.1242 10.8751 12.9823 10.5325C12.8403 10.1899 12.6 9.89707 12.2917 9.69105C11.9833 9.48502 11.6208 9.37505 11.25 9.37505H3.74999C3.37915 9.37505 3.01663 9.48502 2.70829 9.69105C2.39995 9.89707 2.15962 10.1899 2.01771 10.5325C1.8758 10.8751 1.83866 11.2521 1.91101 11.6158C1.98336 11.9796 2.16194 12.3137 2.42416 12.5759C2.68638 12.8381 3.02048 13.0167 3.38419 13.089C3.74791 13.1614 4.12491 13.1242 4.46752 12.9823C4.81013 12.8404 5.10296 12.6001 5.30899 12.2917C5.51502 11.9834 5.62499 11.6209 5.62499 11.2501V3.75005C5.62499 3.37921 5.51502 3.0167 5.30899 2.70836C5.10296 2.40001 4.81013 2.15969 4.46752 2.01778C4.12491 1.87586 3.74791 1.83873 3.38419 1.91108C3.02048 1.98342 2.68638 2.162 2.42416 2.42422C2.16194 2.68645 1.98336 3.02054 1.91101 3.38426C1.83866 3.74797 1.8758 4.12497 2.01771 4.46758C2.15962 4.81019 2.39995 5.10303 2.70829 5.30906C3.01663 5.51508 3.37915 5.62505 3.74999 5.62505H11.25C11.6208 5.62505 11.9833 5.51508 12.2917 5.30906C12.6 5.10303 12.8403 4.81019 12.9823 4.46758C13.1242 4.12497 13.1613 3.74797 13.089 3.38426C13.0166 3.02054 12.838 2.68645 12.5758 2.42422C12.3136 2.162 11.9795 1.98342 11.6158 1.91108C11.2521 1.83873 10.8751 1.87586 10.5325 2.01778C10.1898 2.15969 9.89701 2.40001 9.69098 2.70836C9.48495 3.0167 9.37499 3.37921 9.37499 3.75005Z" stroke="#1E0E06" stroke-width="1.1" stroke-linecap="round" stroke-linejoin="round"/>
</svg>
