<svg width="20" height="20" viewBox="0 0 20 20" fill="none" xmlns="http://www.w3.org/2000/svg">
<path d="M15.4167 15.8334L14.1667 15.3334V13.3334M10.8334 15C10.8334 16.8409 12.3258 18.3334 14.1667 18.3334C16.0076 18.3334 17.5 16.8409 17.5 15C17.5 13.1591 16.0076 11.6667 14.1667 11.6667C12.3258 11.6667 10.8334 13.1591 10.8334 15Z" stroke="white" stroke-width="1.25" stroke-linecap="round" stroke-linejoin="round"/>
<path d="M11.6667 5.00002C11.6667 6.84097 10.1742 8.33335 8.33333 8.33335C6.49238 8.33335 5 6.84097 5 5.00002C5 3.15907 6.49238 1.66669 8.33333 1.66669C10.1742 1.66669 11.6667 3.15907 11.6667 5.00002Z" stroke="white" stroke-width="1.25" stroke-linecap="round" stroke-linejoin="round"/>
<path d="M10 10.8333H6.66667C4.36548 10.8333 2.5 12.6988 2.5 15V15.8333C2.5 16.2936 2.8731 16.6666 3.33333 16.6666H8.33333" stroke="white" stroke-width="1.25" stroke-linecap="round" stroke-linejoin="round"/>
</svg>