<svg width="20" height="20" viewBox="0 0 20 20" fill="none" xmlns="http://www.w3.org/2000/svg">
<path d="M7.08337 5.41667C7.08337 4.24628 7.08337 3.66109 7.36426 3.24072C7.48586 3.05873 7.64211 2.90248 7.82409 2.78088C8.24447 2.5 8.82962 2.5 10 2.5C11.1705 2.5 11.7556 2.5 12.176 2.78088C12.358 2.90248 12.5142 3.05873 12.6358 3.24072C12.9167 3.66109 12.9167 4.24628 12.9167 5.41667" stroke="white" stroke-width="1.25" stroke-linecap="round" stroke-linejoin="round"/>
<path d="M18.3333 11.6667V11.25C18.3333 8.50019 18.3333 7.12523 17.479 6.27096C16.6247 5.41669 15.2498 5.41669 12.5 5.41669H7.49996C4.7501 5.41669 3.37517 5.41669 2.5209 6.27096C1.66663 7.12523 1.66663 8.50019 1.66663 11.25V11.6667C1.66663 14.4165 1.66663 15.7914 2.5209 16.6458C3.37517 17.5 4.7501 17.5 7.49996 17.5H12.5C15.2498 17.5 16.6247 17.5 17.479 16.6458C18.3333 15.7914 18.3333 14.4165 18.3333 11.6667Z" stroke="white" stroke-width="1.25" stroke-linecap="round" stroke-linejoin="round"/>
<path d="M1.66663 8.33331C1.66663 8.33331 3.85961 11.6666 9.99996 11.6666C16.1403 11.6666 18.3333 8.33331 18.3333 8.33331" stroke="white" stroke-width="1.25" stroke-linejoin="round"/>
<path d="M10 11.6667V13.3334" stroke="white" stroke-width="1.25" stroke-linecap="round" stroke-linejoin="round"/>
</svg>
