<svg width="40" height="46" viewBox="0 0 40 46" fill="none" xmlns="http://www.w3.org/2000/svg">
<g opacity="0.2" clip-path="url(#clip0_1_1558)" filter="url(#filter0_f_1_1558)">
<path d="M12.9955 25.2377H26.2804V33.2903H12.9955V25.2377Z" fill="#F79638"/>
<path d="M12.9955 25.2377H26.2804V33.2903H12.9955V25.2377Z" fill="#F79638"/>
<path d="M14.8582 25.2377H12.9955V33.2903H26.2804V31.7922H21.4127C17.7927 31.7922 14.8582 28.8577 14.8582 25.2377V25.2377Z" fill="#F97D21"/>
<path d="M13.4886 17.7571H25.7841V22.1411H13.4886V17.7571Z" fill="#B76224"/>
<path d="M15.137 17.7571H13.4886V22.1411H25.7841V20.3662H17.746C16.305 20.3662 15.137 19.1982 15.137 17.7571Z" fill="#A04D15"/>
<path d="M13.56 18.3272H25.7159C26.0276 18.3272 26.2804 18.0745 26.2804 17.7627C26.2804 17.451 26.0276 17.1982 25.7159 17.1982H13.56C13.2482 17.1982 12.9955 17.451 12.9955 17.7627C12.9955 18.0745 13.2482 18.3272 13.56 18.3272Z" fill="#7E4335"/>
<path d="M14.385 17.8122C14.0732 17.8122 13.8205 17.5594 13.8205 17.2477C13.8205 17.2311 13.8215 17.2145 13.823 17.1983H13.56C13.2482 17.1983 12.9955 17.451 12.9955 17.7628C12.9955 18.0745 13.2482 18.3274 13.56 18.3274H25.7159C26.0109 18.3274 26.2529 18.1007 26.2779 17.8122H14.385Z" fill="#6D362C"/>
<path d="M25.8282 21.2753C25.8172 21.2506 25.7992 21.2295 25.7765 21.2148C25.7538 21.2001 25.7273 21.1922 25.7003 21.1922H13.5313C13.5195 21.1922 13.5079 21.1957 13.498 21.2021C13.4881 21.2086 13.4803 21.2178 13.4755 21.2286L12.2472 23.9897V25.6637C12.2472 26.1175 12.6152 26.4855 13.069 26.4855C13.5226 26.4855 13.8903 26.1175 13.8903 25.6637C13.8903 26.1175 14.2582 26.4855 14.7119 26.4855C15.1657 26.4855 15.5338 26.1175 15.5338 25.6637C15.5338 26.1175 15.9013 26.4855 16.3551 26.4855C16.8088 26.4855 17.1769 26.1175 17.1769 25.6637C17.1769 26.1175 17.5445 26.4855 17.9982 26.4855C18.4523 26.4855 18.8199 26.1175 18.8199 25.6637C18.8199 26.1175 19.1879 26.4855 19.6417 26.4855C20.0955 26.4855 20.463 26.1175 20.463 25.6637C20.463 26.1175 20.8311 26.4855 21.2848 26.4855C21.7384 26.4855 22.1065 26.1175 22.1065 25.6637C22.1065 26.1175 22.4741 26.4855 22.9278 26.4855C23.3816 26.4855 23.7497 26.1175 23.7497 25.6637C23.7497 26.1175 24.1172 26.4855 24.5713 26.4855C25.0251 26.4855 25.3926 26.1175 25.3926 25.6637C25.3926 26.1175 25.7607 26.4855 26.2144 26.4855C26.6682 26.4855 27.0357 26.1175 27.0357 25.6637V23.9897L25.8282 21.2753Z" fill="#E7E7E7"/>
<path d="M24.4247 21.1922L25.3927 23.9897H23.7496L23.0582 21.1922H24.4247Z" fill="#E7E7E7"/>
<path d="M25.3927 23.9898V25.6637C25.3927 26.1175 25.0252 26.4855 24.5714 26.4855C24.1171 26.4855 23.7496 26.1175 23.7496 25.6637V23.9898H25.3927ZM22.1064 23.9898V25.6637C22.1064 26.1175 21.7386 26.4855 21.2848 26.4855C20.831 26.4855 20.463 26.1175 20.463 25.6637V23.9898H22.1064Z" fill="#CECCCC"/>
<path d="M21.6917 21.1922L22.1064 23.9897H20.463L20.3247 21.1922H21.6917ZM18.9582 21.1922L18.8198 23.9897H17.1769L17.5916 21.1922H18.9582Z" fill="#E7E7E7"/>
<path d="M18.8198 23.9898V25.6637C18.8198 26.1175 18.4522 26.4855 17.9982 26.4855C17.5443 26.4855 17.1769 26.1175 17.1769 25.6637V23.9898H18.8198ZM15.5337 23.9898V25.6637C15.5337 26.1175 15.1657 26.4855 14.7119 26.4855C14.2583 26.4855 13.8902 26.1175 13.8902 25.6637V23.9898H15.5337Z" fill="#CECCCC"/>
<path d="M16.2251 21.1922L15.5337 23.9897H13.8902L14.8581 21.1922H16.2251Z" fill="#E7E7E7"/>
<path d="M14.8582 21.1922L13.8902 23.9897L13.0686 24.2549L12.2471 23.9897L13.4755 21.2286C13.4803 21.2178 13.4881 21.2086 13.498 21.2021C13.5079 21.1956 13.5195 21.1922 13.5314 21.1922H14.8582ZM17.5916 21.1922L17.1769 23.9897L16.3552 24.2549L15.5337 23.9897L16.2251 21.1922H17.5916ZM20.3247 21.1922L20.463 23.9897L19.6415 24.2991L18.8198 23.9897L18.9582 21.1922H20.3247ZM23.0582 21.1922L23.7496 23.9897L22.9281 24.2991L22.1064 23.9897L21.6917 21.1922H23.0582ZM25.8281 21.2753L27.0357 23.9897L26.2142 24.2991L25.3927 23.9897L24.4246 21.1922H25.7002C25.7556 21.1922 25.8056 21.2247 25.8281 21.2753Z" fill="#F64446"/>
<path d="M27.0357 23.9898V25.6637C27.0357 26.1175 26.6681 26.4855 26.2144 26.4855C25.7608 26.4855 25.3927 26.1175 25.3927 25.6637V23.9898H27.0357ZM23.7496 23.9898V25.6637C23.7496 26.1175 23.3815 26.4855 22.9278 26.4855C22.4742 26.4855 22.1064 26.1175 22.1064 25.6637V23.9898H23.7496ZM20.463 23.9898V25.6637C20.463 26.1175 20.0954 26.4855 19.6416 26.4855C19.1879 26.4855 18.8198 26.1175 18.8198 25.6637V23.9898H20.463ZM17.1769 23.9898V25.6637C17.1769 26.1175 16.8088 26.4855 16.355 26.4855C15.9012 26.4855 15.5337 26.1175 15.5337 25.6637V23.9898H17.1769ZM13.8902 23.9898V25.6637C13.8902 26.1175 13.5226 26.4855 13.0689 26.4855C12.6152 26.4855 12.2471 26.1175 12.2471 25.6637V23.9898H13.8902Z" fill="#E01E31"/>
<path d="M22.1758 12.1285C24.1543 13.0047 24.9306 14.676 24.4198 17.1983H22.8929C22.6124 17.1983 22.3848 17.4258 22.3848 17.7063V18.9271C22.3848 19.0063 22.3693 19.0848 22.339 19.158C22.3087 19.2312 22.2642 19.2978 22.2082 19.3538C22.1522 19.41 22.0857 19.4545 22.0124 19.4848C21.9392 19.5151 21.8607 19.5307 21.7814 19.5306C21.4482 19.5306 21.1779 19.2602 21.1779 18.9271V17.7063C21.1779 17.5663 21.1208 17.439 21.029 17.3471C20.9819 17.2999 20.9259 17.2624 20.8642 17.2369C20.8026 17.2113 20.7365 17.1982 20.6698 17.1983C20.3893 17.1983 20.1621 17.4258 20.1621 17.7063V18.4411C20.1621 18.784 19.8758 19.0601 19.5294 19.0438C19.2047 19.0283 18.9551 18.7486 18.9551 18.4239V17.7063C18.9551 17.4258 18.7276 17.1983 18.447 17.1983H18.2747C17.9942 17.1983 17.7667 17.4258 17.7667 17.7063V19.5456C17.7667 19.8884 17.4807 20.1646 17.134 20.1483C16.8096 20.1328 16.5597 19.8531 16.5597 19.5284V17.7063C16.5597 17.4258 16.3325 17.1983 16.052 17.1983H15.3172C15.1171 17.1983 15.0331 16.9425 15.1949 16.8241L21.5184 12.1965C21.7094 12.0569 21.9598 12.0326 22.1758 12.1285Z" fill="#FED974"/>
<path d="M15.8379 16.824L22.1616 12.1966C22.1833 12.1805 22.2062 12.1662 22.2293 12.1534C22.2113 12.1452 22.1942 12.1365 22.1758 12.1285C21.9599 12.0326 21.7094 12.057 21.5184 12.1965L15.1949 16.8239C15.0331 16.9423 15.1172 17.1982 15.3173 17.1982H15.9603C15.7602 17.1982 15.6763 16.9423 15.8379 16.824ZM17.2027 19.5284V17.7063C17.2027 17.4258 16.9756 17.1983 16.6951 17.1983H16.052C16.3325 17.1983 16.5596 17.4258 16.5596 17.7063V19.5284C16.5596 19.8531 16.8096 20.1328 17.134 20.1483C17.2644 20.1544 17.3863 20.1191 17.4875 20.0544C17.3156 19.9433 17.2027 19.7462 17.2027 19.5284ZM21.821 18.927V17.7063C21.821 17.5662 21.7639 17.439 21.672 17.3471C21.6249 17.2998 21.5689 17.2623 21.5073 17.2368C21.4456 17.2112 21.3795 17.1981 21.3128 17.1982C21.1907 17.1982 21.0788 17.2414 20.9913 17.3132C21.0497 17.3608 21.0967 17.4208 21.1289 17.4887C21.1612 17.5567 21.1779 17.6311 21.1779 17.7063V18.927C21.1779 19.2602 21.4482 19.5305 21.7814 19.5305C21.8953 19.5305 22.0068 19.4982 22.1029 19.4372C21.9339 19.3301 21.821 19.142 21.821 18.927V18.927ZM19.5981 18.4239V17.7063C19.5981 17.4258 19.3706 17.1983 19.0902 17.1983H18.9179C18.8329 17.1983 18.7528 17.2194 18.6824 17.2564C18.8443 17.3413 18.9551 17.5108 18.9551 17.7063V18.4239C18.9551 18.7486 19.2047 19.0283 19.5294 19.0438C19.6598 19.0497 19.7816 19.0146 19.8828 18.9498C19.7109 18.8388 19.5981 18.6417 19.5981 18.4239V18.4239Z" fill="#FCC53A"/>
<path d="M19.5286 13.6527C19.8088 13.8552 19.9912 14.1842 19.9912 14.5563C19.9912 15.1716 19.4924 15.6704 18.8769 15.6704C18.3829 15.6704 17.9645 15.3492 17.8184 14.9045L19.5286 13.6527Z" fill="#F64446"/>
<path d="M22.1758 12.1285C24.1543 13.0047 24.9306 14.676 24.4198 17.1983H23.2401V17.193C23.4646 15.0821 22.8351 13.6528 21.0577 12.8654C20.9927 12.8365 20.9235 12.8182 20.8528 12.8112C20.8334 12.8092 20.8147 12.8032 20.7979 12.7935C20.7811 12.7838 20.7664 12.7707 20.755 12.755L21.5184 12.1965C21.7094 12.0569 21.9599 12.0326 22.1758 12.1285Z" fill="#F79638"/>
<path d="M22.1813 15.8619C22.1813 16.1782 21.9248 16.4348 21.6085 16.4348C21.2921 16.4348 21.0356 16.1782 21.0356 15.8619C21.0356 15.5455 21.2921 15.289 21.6085 15.289C21.9248 15.289 22.1813 15.5455 22.1813 15.8619Z" fill="#F64446"/>
<path d="M17.3798 17.06C17.3393 17.06 17.2982 17.0525 17.2582 17.0366L16.962 16.9198C16.9216 16.9038 16.8846 16.88 16.8534 16.8497C16.8221 16.8195 16.7971 16.7833 16.7798 16.7434C16.7624 16.7035 16.7532 16.6606 16.7525 16.617C16.7517 16.5735 16.7596 16.5303 16.7756 16.4898C16.8428 16.3197 17.0354 16.2362 17.2054 16.3034L17.5015 16.4203C17.5734 16.4486 17.633 16.5011 17.6703 16.5687C17.7076 16.6363 17.7201 16.7148 17.7056 16.7906C17.6912 16.8664 17.6507 16.9348 17.5912 16.984C17.5318 17.0332 17.457 17.0601 17.3798 17.06ZM19.4982 17.1077C19.4326 17.1077 19.3685 17.0882 19.314 17.0517C19.2595 17.0152 19.2171 16.9634 19.192 16.9027C19.167 16.8421 19.1605 16.7754 19.1735 16.7111C19.1864 16.6468 19.2181 16.5878 19.2646 16.5415L19.452 16.3551C19.4828 16.3244 19.5194 16.3001 19.5597 16.2835C19.5999 16.267 19.643 16.2585 19.6866 16.2586C19.7301 16.2587 19.7731 16.2674 19.8133 16.2842C19.8535 16.3009 19.8899 16.3254 19.9206 16.3563C19.9513 16.3871 19.9756 16.4237 19.9922 16.4639C20.0087 16.5042 20.0172 16.5473 20.0171 16.5908C20.017 16.6343 20.0083 16.6774 19.9916 16.7175C19.9748 16.7577 19.9503 16.7942 19.9195 16.8249L19.7321 17.0113C19.7013 17.042 19.6649 17.0662 19.6247 17.0828C19.5846 17.0993 19.5416 17.1078 19.4982 17.1077ZM21.036 14.6181C21.0091 14.6181 20.9817 14.6147 20.9546 14.6079C20.9124 14.5973 20.8727 14.5784 20.8378 14.5525C20.8029 14.5265 20.7734 14.4939 20.7511 14.4566C20.7288 14.4192 20.7141 14.3778 20.7078 14.3348C20.7015 14.2917 20.7038 14.2478 20.7144 14.2057L20.8111 13.8218C20.8217 13.7796 20.8406 13.7399 20.8665 13.7049C20.8925 13.67 20.9251 13.6405 20.9624 13.6182C20.9998 13.5959 21.0412 13.5811 21.0842 13.5748C21.1273 13.5685 21.1712 13.5708 21.2134 13.5814C21.2556 13.592 21.2953 13.6109 21.3302 13.6368C21.3651 13.6628 21.3946 13.6954 21.4169 13.7327C21.4393 13.7701 21.454 13.8115 21.4603 13.8546C21.4666 13.8976 21.4644 13.9415 21.4537 13.9837L21.357 14.3678C21.3389 14.4392 21.2975 14.5026 21.2394 14.548C21.1813 14.5933 21.1097 14.618 21.036 14.6181Z" fill="#92E174"/>
<path d="M27.015 32.9572C27.0679 33.0102 27.1098 33.073 27.1384 33.1421C27.167 33.2113 27.1817 33.2854 27.1816 33.3602C27.1816 33.6742 26.9267 33.9292 26.6121 33.9292H12.6403C12.5655 33.9293 12.4914 33.9146 12.4223 33.886C12.3532 33.8574 12.2903 33.8155 12.2375 33.7626C12.1845 33.7098 12.1426 33.6471 12.114 33.578C12.0854 33.5089 12.0707 33.4349 12.0708 33.3602C12.0708 33.0457 12.3258 32.7907 12.6403 32.7907H26.6121C26.687 32.7906 26.761 32.8052 26.8302 32.8338C26.8993 32.8624 26.9621 32.9043 27.015 32.9572Z" fill="#7E4335"/>
<path d="M13.8165 33.3598C13.6591 33.3598 13.5168 33.2963 13.4135 33.1932C13.3606 33.1404 13.3186 33.0777 13.2901 33.0087C13.2615 32.9396 13.2469 32.8656 13.247 32.7908V32.7907H12.6403C12.3258 32.7907 12.0708 33.0455 12.0708 33.3602C12.0708 33.5174 12.1345 33.6597 12.2374 33.7626C12.2903 33.8155 12.3532 33.8574 12.4223 33.886C12.4914 33.9146 12.5655 33.9292 12.6403 33.9292H26.6121C26.9267 33.9292 27.1817 33.6742 27.1817 33.3602V33.3598H13.8165Z" fill="#6D362C"/>
<path d="M25.0193 28.6084V32.7905H21.0413V28.6084C21.0413 28.1396 21.4208 27.7596 21.8896 27.7596H24.1712C24.6394 27.7596 25.0193 28.1396 25.0193 28.6084H25.0193Z" fill="#B76224"/>
<path d="M23.9542 29.0007V29.7845C23.9542 29.8327 23.9351 29.8789 23.901 29.9129C23.8669 29.947 23.8208 29.9661 23.7726 29.9661H22.2877C22.2396 29.966 22.1935 29.9469 22.1595 29.9128C22.1255 29.8788 22.1064 29.8326 22.1064 29.7845V29.0007C22.1064 28.9526 22.1255 28.9065 22.1595 28.8724C22.1935 28.8384 22.2396 28.8192 22.2877 28.8191H23.7726C23.8208 28.8192 23.8669 28.8383 23.901 28.8724C23.935 28.9064 23.9542 28.9526 23.9542 29.0007Z" fill="#A04D15"/>
<path d="M19.9006 28.0403V31.0017C19.9006 31.0377 19.8935 31.0734 19.8797 31.1067C19.8659 31.14 19.8457 31.1702 19.8202 31.1957C19.7947 31.2212 19.7644 31.2414 19.7311 31.2551C19.6978 31.2689 19.6621 31.276 19.6261 31.276H14.3913C14.3552 31.276 14.3195 31.2689 14.2863 31.2551C14.253 31.2414 14.2227 31.2212 14.1972 31.1957C14.1718 31.1702 14.1516 31.14 14.1378 31.1067C14.124 31.0734 14.1169 31.0377 14.1169 31.0017V28.0402C14.1169 28.0042 14.124 27.9685 14.1378 27.9352C14.1516 27.902 14.1718 27.8717 14.1972 27.8462C14.2227 27.8208 14.253 27.8006 14.2863 27.7868C14.3195 27.773 14.3552 27.7659 14.3913 27.7659H19.6261C19.7777 27.7659 19.9007 27.8887 19.9007 28.0403H19.9006Z" fill="#3DCFF3"/>
<path d="M19.6262 27.7659H17.0088V31.2761H19.6262C19.6989 31.2761 19.7687 31.2472 19.8202 31.1958C19.8717 31.1443 19.9006 31.0746 19.9007 31.0018V28.0403C19.9007 27.9675 19.8718 27.8977 19.8203 27.8462C19.7688 27.7947 19.699 27.7658 19.6262 27.7658V27.7659Z" fill="#ABEAF8"/>
<path d="M23.9542 31.8051H22.1063C22.0184 31.8051 21.9341 31.7702 21.872 31.7081C21.8098 31.646 21.7749 31.5617 21.7749 31.4738C21.7749 31.3859 21.8098 31.3016 21.872 31.2395C21.9341 31.1774 22.0184 31.1424 22.1063 31.1424H23.9542C24.0421 31.1424 24.1264 31.1774 24.1885 31.2395C24.2507 31.3016 24.2856 31.3859 24.2856 31.4738C24.2856 31.5617 24.2507 31.646 24.1885 31.7081C24.1264 31.7702 24.0421 31.8051 23.9542 31.8051Z" fill="#A04D15"/>
</g>
<defs>
<filter id="filter0_f_1_1558" x="-3.64305" y="0" width="45.9999" height="46" filterUnits="userSpaceOnUse" color-interpolation-filters="sRGB">
<feFlood flood-opacity="0" result="BackgroundImageFix"/>
<feBlend mode="normal" in="SourceGraphic" in2="BackgroundImageFix" result="shape"/>
<feGaussianBlur stdDeviation="6" result="effect1_foregroundBlur_1_1558"/>
</filter>
<clipPath id="clip0_1_1558">
<rect width="21.7301" height="21.7301" fill="white" transform="translate(8.42778 12.0708) scale(1.0059)"/>
</clipPath>
</defs>
</svg>
