<svg width="20" height="20" viewBox="0 0 20 20" fill="none" xmlns="http://www.w3.org/2000/svg">
<path d="M13.3333 1.66667V5.00001M6.66663 1.66667V5.00001" stroke="white" stroke-width="1.25" stroke-linecap="round" stroke-linejoin="round"/>
<path d="M17.5 10.8333V9.99999C17.5 6.85729 17.5 5.28595 16.5237 4.30964C15.5474 3.33333 13.976 3.33333 10.8333 3.33333H9.16667C6.02397 3.33333 4.45262 3.33333 3.47631 4.30964C2.5 5.28595 2.5 6.85729 2.5 9.99999V11.6667C2.5 14.8093 2.5 16.3807 3.47631 17.357C4.45262 18.3333 6.02397 18.3333 9.16667 18.3333" stroke="white" stroke-width="1.25" stroke-linecap="round" stroke-linejoin="round"/>
<path d="M2.5 8.33333H17.5" stroke="white" stroke-width="1.25" stroke-linecap="round" stroke-linejoin="round"/>
<path d="M14.5833 15.4167C13.6628 15.4167 12.9166 14.6705 12.9166 13.75C12.9166 12.8295 13.6628 12.0833 14.5833 12.0833C15.5038 12.0833 16.25 12.8295 16.25 13.75C16.25 14.6705 15.5038 15.4167 14.5833 15.4167ZM14.5833 15.4167C16.1941 15.4167 17.5 16.7225 17.5 18.3333M14.5833 15.4167C12.9725 15.4167 11.6666 16.7225 11.6666 18.3333" stroke="white" stroke-width="1.25" stroke-linecap="round" stroke-linejoin="round"/>
</svg>
