<svg width="20" height="20" viewBox="0 0 20 20" fill="none" xmlns="http://www.w3.org/2000/svg">
<path d="M3.33329 2.5H2.49996C2.03973 2.5 1.66663 2.8731 1.66663 3.33333V15.4167L2.91663 17.5L4.16663 15.4167V3.33333C4.16663 2.8731 3.79353 2.5 3.33329 2.5Z" stroke="white" stroke-width="1.25" stroke-linecap="round" stroke-linejoin="round"/>
<path d="M17.5 10V4.16667C17.5 3.24619 16.7538 2.5 15.8333 2.5H8.33329C7.41282 2.5 6.66663 3.24619 6.66663 4.16667V15.8333C6.66663 16.7538 7.41282 17.5 8.33329 17.5H9.99996" stroke="white" stroke-width="1.25" stroke-linecap="round" stroke-linejoin="round"/>
<path d="M10 5.83331H14.1667" stroke="white" stroke-width="1.25" stroke-linecap="round" stroke-linejoin="round"/>
<path d="M10 9.16669H14.1667" stroke="white" stroke-width="1.25" stroke-linecap="round" stroke-linejoin="round"/>
<path d="M12.0834 15.4167L13.75 17.5L18.3334 12.5" stroke="white" stroke-width="1.25" stroke-linecap="round" stroke-linejoin="round"/>
<path d="M1.66663 5.83331H4.16663" stroke="white" stroke-width="1.25" stroke-linecap="round" stroke-linejoin="round"/>
</svg>
