<svg width="45" height="45" viewBox="0 0 45 45" fill="none" xmlns="http://www.w3.org/2000/svg">
<rect width="45" height="45" rx="13" fill="#FFEFD6"/>
<path opacity="0.4" d="M22.5 34.1667C28.9434 34.1667 34.1667 28.9433 34.1667 22.5C34.1667 16.0567 28.9434 10.8333 22.5 10.8333C16.0567 10.8333 10.8334 16.0567 10.8334 22.5C10.8334 28.9433 16.0567 34.1667 22.5 34.1667Z" fill="#F76B15"/>
<path d="M22.5 34.1667C16.0567 34.1667 10.8334 28.9433 10.8334 22.5C10.8334 16.0567 16.0567 10.8333 22.5 10.8333C27.724 10.8333 32.0966 14.2667 33.5833 19H30.6667" stroke="#F76B15" stroke-width="1.75" stroke-linecap="round" stroke-linejoin="round"/>
<path d="M22.5 17.8333V22.5L24.8333 24.8333" stroke="#F76B15" stroke-width="1.75" stroke-linecap="round" stroke-linejoin="round"/>
<path d="M34.1143 23.6667C34.1489 23.2827 34.1667 22.8935 34.1667 22.5M26 34.1667C26.3985 34.0355 26.7878 33.8825 27.1667 33.7091M32.7557 28.3333C32.9807 27.8998 33.1814 27.4505 33.3558 26.9872M29.7246 32.1007C30.1264 31.7681 30.507 31.4084 30.8636 31.0242" stroke="#F76B15" stroke-width="1.75" stroke-linecap="round" stroke-linejoin="round"/>
</svg>
