<svg width="21" height="21" viewBox="0 0 21 21" fill="none" xmlns="http://www.w3.org/2000/svg">
<g opacity="0.8">
<path d="M14.0001 14.4375L17.5 17.9375" stroke="#1E0E06" stroke-width="1.1" stroke-linecap="round" stroke-linejoin="round"/>
<path d="M15.75 10.0626C15.75 13.4453 13.0078 16.1876 9.62501 16.1876C6.24226 16.1876 3.5 13.4453 3.5 10.0626C3.5 6.67985 6.24226 3.93759 9.62501 3.93759" stroke="#1E0E06" stroke-width="1.1" stroke-linecap="round" stroke-linejoin="round"/>
<path d="M13.5625 3.06254L13.7882 3.67244C14.0841 4.47218 14.2321 4.87206 14.5238 5.16376C14.8155 5.45547 15.2154 5.60343 16.0151 5.89936L16.625 6.12504L16.0151 6.35072C15.2154 6.64666 14.8155 6.79463 14.5238 7.08633C14.2321 7.37803 14.0841 7.7779 13.7882 8.57765L13.5625 9.18752L13.3368 8.57765C13.0409 7.7779 12.893 7.37803 12.6012 7.08633C12.3095 6.79463 11.9096 6.64666 11.1099 6.35072L10.5 6.12504L11.1099 5.89936C11.9096 5.60343 12.3095 5.45547 12.6012 5.16376C12.893 4.87206 13.0409 4.47218 13.3368 3.67244L13.5625 3.06254Z" stroke="#1E0E06" stroke-width="1.1" stroke-linecap="round" stroke-linejoin="round"/>
</g>
</svg>