<svg width="45" height="45" viewBox="0 0 45 45" fill="none" xmlns="http://www.w3.org/2000/svg">
<rect width="45" height="45" rx="13" fill="#E6F6EB"/>
<path d="M10.8333 24.8333C10.8333 21.5563 10.8333 19.9177 11.6198 18.7407C11.9603 18.2311 12.3978 17.7936 12.9073 17.4531C14.0844 16.6667 15.7229 16.6667 19 16.6667H26C29.277 16.6667 30.9156 16.6667 32.0927 17.4531C32.6021 17.7936 33.0396 18.2311 33.3802 18.7407C34.1666 19.9177 34.1666 21.5563 34.1666 24.8333C34.1666 28.1104 34.1666 29.749 33.3802 30.926C33.0396 31.4355 32.6021 31.873 32.0927 32.2135C30.9156 33 29.277 33 26 33H19C15.7229 33 14.0844 33 12.9073 32.2135C12.3978 31.873 11.9603 31.4355 11.6198 30.926C10.8333 29.749 10.8333 28.1104 10.8333 24.8333Z" stroke="#2B9A66" stroke-width="1.75" stroke-linecap="round" stroke-linejoin="round"/>
<path opacity="0.4" d="M10.8333 24.8333C10.8333 21.5563 10.8333 19.9177 11.6198 18.7407C11.9603 18.2311 12.3978 17.7936 12.9073 17.4531C14.0844 16.6667 15.7229 16.6667 19 16.6667H26C29.277 16.6667 30.9156 16.6667 32.0927 17.4531C32.6021 17.7936 33.0396 18.2311 33.3802 18.7407C34.1666 19.9177 34.1666 21.5563 34.1666 24.8333C34.1666 28.1104 34.1666 29.749 33.3802 30.926C33.0396 31.4355 32.6021 31.873 32.0927 32.2135C30.9156 33 29.277 33 26 33H19C15.7229 33 14.0844 33 12.9073 32.2135C12.3978 31.873 11.9603 31.4355 11.6198 30.926C10.8333 29.749 10.8333 28.1104 10.8333 24.8333Z" fill="#2B9A66"/>
<path d="M27.1666 16.6667C27.1666 14.4668 27.1666 13.3668 26.4832 12.6834C25.7998 12 24.6998 12 22.5 12C20.3001 12 19.2001 12 18.5167 12.6834C17.8333 13.3668 17.8333 14.4668 17.8333 16.6667" stroke="#2B9A66" stroke-width="1.75" stroke-linecap="round" stroke-linejoin="round"/>
<path d="M15.5 21.3333L16.2606 21.569C20.2659 22.8103 24.734 22.8103 28.7393 21.569L29.5 21.3333M22.5 22.5V24.8333" stroke="#2B9A66" stroke-width="1.75" stroke-linecap="round" stroke-linejoin="round"/>
</svg>
