<svg width="20" height="20" viewBox="0 0 20 20" fill="none" xmlns="http://www.w3.org/2000/svg">
<path d="M10 1.45831C10.4074 1.45831 10.8034 1.59251 11.1271 1.83999L17.2257 6.50307L17.3291 6.5869C17.8329 7.0207 18.125 7.65435 18.125 8.32355V16.25C18.125 17.5156 17.099 18.5416 15.8333 18.5416H4.16667C2.90102 18.5416 1.875 17.5156 1.875 16.25V8.32355C1.87502 7.60985 2.20736 6.93665 2.77425 6.50307L8.87292 1.83999L8.99742 1.7521C9.29558 1.56069 9.6435 1.45831 10 1.45831ZM13.1576 13.6547C12.8925 13.3143 12.4159 13.2358 12.0581 13.4602C11.5408 13.8629 10.7764 14.1666 10 14.1666C9.32058 14.1666 8.70375 13.9717 8.21371 13.6531L7.94189 13.4602C7.58411 13.2359 7.10747 13.3143 6.84245 13.6547C6.57743 13.9953 6.61822 14.4771 6.92382 14.7689L7.14356 14.9397C7.9355 15.5039 8.93058 15.8333 10 15.8333C11.1405 15.8333 12.2609 15.4034 13.0762 14.7689C13.3818 14.4771 13.4227 13.9954 13.1576 13.6547Z" fill="white"/>
</svg>
