<svg width="45" height="45" viewBox="0 0 45 45" fill="none" xmlns="http://www.w3.org/2000/svg">
<rect width="45" height="45" rx="13" fill="#F2E2FC"/>
<path opacity="0.4" d="M26 18.4147V13.2953C26 12.2578 25.1588 11.4167 24.1213 11.4167C23.8225 11.4167 23.5281 11.4879 23.2623 11.6245L12.8893 16.9575C12.3433 17.2382 12 17.8007 12 18.4147H26Z" fill="#8347B9"/>
<path d="M21.3333 33.5833H26C29.2998 33.5833 30.9497 33.5833 31.9748 32.5582C33 31.533 33 29.8831 33 26.5833V25.4167C33 22.1169 33 20.467 31.9748 19.4418C30.9497 18.4167 29.2998 18.4167 26 18.4167H12V24.25" stroke="#8347B9" stroke-width="1.75" stroke-linecap="round" stroke-linejoin="round"/>
<path d="M26 18.4147V13.2953C26 12.2578 25.1588 11.4167 24.1213 11.4167C23.8225 11.4167 23.5281 11.4879 23.2623 11.6245L12.8893 16.9575C12.3433 17.2382 12 17.8007 12 18.4147" stroke="#8347B9" stroke-width="1.75" stroke-linecap="round" stroke-linejoin="round"/>
<path d="M28.9166 26.5833C29.2388 26.5833 29.5 26.3221 29.5 26C29.5 25.6779 29.2388 25.4167 28.9166 25.4167M28.9166 26.5833C28.5945 26.5833 28.3333 26.3221 28.3333 26C28.3333 25.6779 28.5945 25.4167 28.9166 25.4167M28.9166 26.5833V25.4167" stroke="#8347B9" stroke-width="1.75" stroke-linecap="round" stroke-linejoin="round"/>
<path d="M20.1667 29.5H16.0833M16.0833 29.5H12M16.0833 29.5V25.4167M16.0833 29.5V33.5833" stroke="#8347B9" stroke-width="1.75" stroke-linecap="round" stroke-linejoin="round"/>
</svg>
