<svg width="45" height="45" viewBox="0 0 45 45" fill="none" xmlns="http://www.w3.org/2000/svg">
<rect width="45" height="45" rx="13" fill="#E6F4FE"/>
<path opacity="0.4" d="M32.9331 28.1413C32.1675 23.5344 29.7837 20.1038 27.7115 18.0888C27.1084 17.5025 26.807 17.2093 26.1409 16.938C25.4749 16.6667 24.9024 16.6667 23.7574 16.6667H21.2426C20.0976 16.6667 19.5251 16.6667 18.8591 16.938C18.1931 17.2093 17.8916 17.5025 17.2885 18.0888C15.2163 20.1038 12.8325 23.5344 12.0668 28.1413C11.4971 31.569 14.6591 34.1667 18.193 34.1667H26.807C30.3408 34.1667 33.5029 31.569 32.9331 28.1413Z" fill="#0588F0"/>
<path d="M32.9331 28.1413C32.1675 23.5344 29.7837 20.1038 27.7115 18.0888C27.1084 17.5025 26.807 17.2093 26.1409 16.938C25.4749 16.6667 24.9024 16.6667 23.7574 16.6667H21.2426C20.0976 16.6667 19.5251 16.6667 18.8591 16.938C18.1931 17.2093 17.8916 17.5025 17.2885 18.0888C15.2163 20.1038 12.8325 23.5344 12.0668 28.1413C11.4971 31.569 14.6591 34.1667 18.193 34.1667H26.807C30.3408 34.1667 33.5029 31.569 32.9331 28.1413Z" stroke="#0588F0" stroke-width="1.75" stroke-linecap="round"/>
<path d="M24.5641 23.5802C24.3119 22.6491 23.0281 21.8089 21.4871 22.4375C19.946 23.066 19.7012 25.0884 22.0322 25.3033C23.0857 25.4003 23.7727 25.1906 24.4015 25.7841C25.0305 26.3774 25.1472 28.0278 23.5396 28.4725C21.9319 28.9173 20.34 28.2224 20.1666 27.2355M22.4816 21.3333V22.2205M22.4816 28.6094V29.5" stroke="#0588F0" stroke-width="1.75" stroke-linecap="round" stroke-linejoin="round"/>
<path d="M16.966 13.6834C16.7253 13.333 16.3765 12.8575 17.0971 12.7491C17.8379 12.6376 18.607 13.1447 19.3599 13.1343C20.0411 13.1248 20.3881 12.8227 20.7603 12.3914C21.1523 11.9372 21.7594 10.8333 22.5 10.8333C23.2406 10.8333 23.8476 11.9372 24.2396 12.3914C24.6119 12.8227 24.9588 13.1248 25.6399 13.1343C26.3929 13.1447 27.1621 12.6376 27.9028 12.7491C28.6234 12.8575 28.2746 13.333 28.0339 13.6834L26.9455 15.2674C26.48 15.945 26.2473 16.2839 25.7601 16.4753C25.273 16.6667 24.6435 16.6667 23.3845 16.6667H21.6154C20.3564 16.6667 19.7269 16.6667 19.2398 16.4753C18.7526 16.2839 18.5199 15.945 18.0543 15.2674L16.966 13.6834Z" stroke="#0588F0" stroke-width="1.75"/>
</svg>
