<svg width="45" height="45" viewBox="0 0 45 45" fill="none" xmlns="http://www.w3.org/2000/svg">
<rect width="45" height="45" rx="13" fill="#F0E4D9"/>
<path opacity="0.4" d="M31.25 13.1667V17.864L31.8333 18.3245V26.5833C31.8333 29.8831 31.8333 31.533 30.8082 32.5582C29.783 33.5833 28.1331 33.5833 24.8333 33.5833H20.1667C16.8668 33.5833 15.2169 33.5833 14.1918 32.5582C13.1667 31.533 13.1667 29.8831 13.1667 26.5833V18.3245L21.4589 11.7781C21.7553 11.544 22.1221 11.4167 22.5 11.4167C22.8779 11.4167 23.2447 11.544 23.5411 11.7781L27.75 15.1009V13.1667C27.75 12.5223 28.2723 12 28.9167 12H30.0833C30.7277 12 31.25 12.5223 31.25 13.1667Z" fill="#A07553"/>
<path d="M10.8333 20.1667L21.4589 11.7781C21.7553 11.544 22.1221 11.4167 22.5 11.4167C22.8779 11.4167 23.2447 11.544 23.5411 11.7781L27.75 15.1009V13.1667C27.75 12.5223 28.2723 12 28.9167 12H30.0833C30.7277 12 31.25 12.5223 31.25 13.1667V17.864L34.1667 20.1667" stroke="#A07553" stroke-width="1.75" stroke-linecap="round" stroke-linejoin="round"/>
<path d="M31.8333 21.9167V26.5833C31.8333 29.8831 31.8333 31.533 30.8082 32.5582C29.783 33.5833 28.1331 33.5833 24.8333 33.5833H20.1667C16.8668 33.5833 15.2169 33.5833 14.1918 32.5582C13.1667 31.533 13.1667 29.8831 13.1667 26.5833V21.9167" stroke="#A07553" stroke-width="1.75" stroke-linecap="round" stroke-linejoin="round"/>
<path d="M26.0013 26.5833C25.0685 27.3095 23.8432 27.75 22.5013 27.75C21.1594 27.75 19.9341 27.3095 19.0013 26.5833" stroke="#A07553" stroke-width="1.75" stroke-linecap="round" stroke-linejoin="round"/>
</svg>
