<svg width="20" height="20" viewBox="0 0 20 20" fill="none" xmlns="http://www.w3.org/2000/svg">
<path d="M5.83337 7.08334L8.28506 8.53284C9.71437 9.37793 10.2857 9.37793 11.715 8.53284L14.1667 7.08334" stroke="white" stroke-width="1.25" stroke-linecap="round" stroke-linejoin="round"/>
<path d="M1.67976 11.2297C1.73425 13.7842 1.76148 15.0616 2.70409 16.0077C3.6467 16.954 4.95857 16.9869 7.58232 17.0528C9.19938 17.0935 10.8005 17.0935 12.4176 17.0528C15.0414 16.9869 16.3532 16.954 17.2958 16.0077C18.2385 15.0616 18.2657 13.7842 18.3201 11.2297C18.3377 10.4082 18.3377 9.59165 18.3201 8.77032C18.2657 6.21568 18.2385 4.93837 17.2958 3.99218C16.3532 3.04599 15.0414 3.01303 12.4176 2.9471C10.8005 2.90647 9.19938 2.90647 7.58231 2.94709C4.95857 3.01301 3.6467 3.04597 2.70409 3.99217C1.76148 4.93836 1.73424 6.21567 1.67976 8.77023C1.66225 9.59165 1.66225 10.4082 1.67976 11.2297Z" stroke="white" stroke-width="1.25" stroke-linejoin="round"/>
</svg>
