<svg width="45" height="45" viewBox="0 0 45 45" fill="none" xmlns="http://www.w3.org/2000/svg">
<rect width="45" height="45" rx="13" fill="#FEEBEC"/>
<path opacity="0.4" d="M17.8334 15.5C17.8334 15.071 17.8334 14.6838 17.8384 14.3333H17.8334C16.1773 14.4346 15.1228 14.7124 14.3627 15.4748C13.1667 16.6742 13.1667 18.6048 13.1667 22.4658V34.1667H19.5834V31.25C19.5834 30.1596 19.5834 29.6145 19.8178 29.2083C19.9714 28.9423 20.1924 28.7214 20.4584 28.5678C20.8645 28.3333 21.4097 28.3333 22.5 28.3333C23.5904 28.3333 24.1356 28.3333 24.5417 28.5678C24.8077 28.7214 25.0287 28.9423 25.1822 29.2083C25.4167 29.6145 25.4167 30.1596 25.4167 31.25V34.1667H31.8334V22.4658C31.8334 18.6048 31.8334 16.6742 30.6374 15.4748C29.8772 14.7124 28.8227 14.4346 27.1667 14.3333H27.1617C27.1667 14.6838 27.1667 15.071 27.1667 15.5C27.1667 17.6999 27.1667 18.7998 26.4833 19.4833C25.7998 20.1667 24.6999 20.1667 22.5 20.1667C20.3002 20.1667 19.2002 20.1667 18.5168 19.4833C17.8334 18.7998 17.8334 17.6999 17.8334 15.5Z" fill="#DC3E42"/>
<path d="M17.8334 14.3333C16.1773 14.4346 15.1228 14.7124 14.3627 15.4748C13.1667 16.6742 13.1667 18.6048 13.1667 22.4658V34.1667H31.8334V22.4658C31.8334 18.6048 31.8334 16.6742 30.6374 15.4748C29.8772 14.7124 28.8227 14.4346 27.1667 14.3333" stroke="#DC3E42" stroke-width="1.75" stroke-linecap="round" stroke-linejoin="round"/>
<path d="M12 34.1667H33" stroke="#DC3E42" stroke-width="1.75" stroke-linecap="round" stroke-linejoin="round"/>
<path d="M19.5833 31.25V34.1667H25.4166V31.25C25.4166 30.1596 25.4166 29.6145 25.1821 29.2083C25.0286 28.9423 24.8076 28.7214 24.5416 28.5678C24.1355 28.3333 23.5903 28.3333 22.5 28.3333C21.4096 28.3333 20.8644 28.3333 20.4583 28.5678C20.1923 28.7214 19.9714 28.9423 19.8178 29.2083C19.5833 29.6145 19.5833 30.1596 19.5833 31.25Z" stroke="#DC3E42" stroke-width="1.75" stroke-linecap="round"/>
<path d="M17.8438 23.6667H17.8333M22.5 23.6667H22.4895M27.1679 23.6667H27.1575" stroke="#DC3E42" stroke-width="1.75" stroke-linecap="round" stroke-linejoin="round"/>
<path d="M18.5167 11.5168C17.8333 12.2002 17.8333 13.3001 17.8333 15.5C17.8333 17.6999 17.8333 18.7998 18.5167 19.4833C19.2001 20.1667 20.3001 20.1667 22.5 20.1667C24.6998 20.1667 25.7998 20.1667 26.4832 19.4833C27.1666 18.7998 27.1666 17.6999 27.1666 15.5C27.1666 13.3001 27.1666 12.2002 26.4832 11.5168C25.7998 10.8333 24.6998 10.8333 22.5 10.8333C20.3001 10.8333 19.2001 10.8333 18.5167 11.5168Z" stroke="#DC3E42" stroke-width="1.75" stroke-linecap="round" stroke-linejoin="round"/>
<path d="M22.5 13.75V15.5M22.5 15.5V17.25M22.5 15.5H24.25M22.5 15.5H20.75" stroke="#DC3E42" stroke-width="1.75" stroke-linecap="round"/>
</svg>
