<svg width="20" height="20" viewBox="0 0 20 20" fill="none" xmlns="http://www.w3.org/2000/svg">
<path d="M10.8333 2.91669H11.6667C12.4417 2.91669 12.8292 2.91669 13.1471 3.00187C14.0097 3.23304 14.6837 3.90691 14.9148 4.76964C15 5.08755 15 5.47505 15 6.25002H4.16667C3.24619 6.25002 2.5 5.50383 2.5 4.58335C2.5 3.66288 3.24619 2.91669 4.16667 2.91669H6.66667" stroke="white" stroke-width="1.25" stroke-linecap="round" stroke-linejoin="round"/>
<path d="M2.5 4.58331V12.9166C2.5 15.2736 2.5 16.4521 3.23223 17.1844C3.96447 17.9166 5.14297 17.9166 7.5 17.9166H12.5C14.857 17.9166 16.0355 17.9166 16.7677 17.1844C17.5 16.4521 17.5 15.2736 17.5 12.9166V11.25C17.5 8.89298 17.5 7.71445 16.7677 6.98221C16.0355 6.24998 14.857 6.24998 12.5 6.24998H5.83333" stroke="white" stroke-width="1.25" stroke-linecap="round" stroke-linejoin="round"/>
<path d="M17.5 10.4167H15.8333C15.4458 10.4167 15.252 10.4167 15.0931 10.4593C14.6617 10.5749 14.3248 10.9118 14.2092 11.3432C14.1666 11.5021 14.1666 11.6959 14.1666 12.0834C14.1666 12.4709 14.1666 12.6646 14.2092 12.8235C14.3248 13.2549 14.6617 13.5919 15.0931 13.7074C15.252 13.75 15.4458 13.75 15.8333 13.75H17.5" stroke="white" stroke-width="1.25" stroke-linecap="round" stroke-linejoin="round"/>
<path d="M8.75004 2.08331C10.3609 2.08331 11.6667 3.38915 11.6667 4.99998C11.6667 5.44731 11.566 5.87112 11.386 6.24998H6.11406C5.93408 5.87112 5.83337 5.44731 5.83337 4.99998C5.83337 3.38915 7.13921 2.08331 8.75004 2.08331Z" stroke="white" stroke-width="1.25" stroke-linecap="round" stroke-linejoin="round"/>
</svg>
