<svg width="20" height="20" viewBox="0 0 20 20" fill="none" xmlns="http://www.w3.org/2000/svg">
<path d="M16.4545 10.8334C17.1135 9.88852 17.5 8.73935 17.5 7.50002C17.5 4.27836 14.8884 1.66669 11.6667 1.66669C8.44504 1.66669 5.83337 4.27835 5.83337 7.50002C5.83337 8.39469 6.03478 9.24227 6.39473 10" stroke="white" stroke-width="1.25" stroke-linejoin="round"/>
<path d="M11.6667 5C10.7462 5 10 5.55964 10 6.25C10 6.94036 10.7462 7.5 11.6667 7.5C12.5872 7.5 13.3333 8.05964 13.3333 8.75C13.3333 9.44033 12.5872 10 11.6667 10M11.6667 5C12.3923 5 13.0097 5.34783 13.2385 5.83333M11.6667 5V3.75M11.6667 10C10.941 10 10.3237 9.65217 10.0948 9.16667M11.6667 10V11.25" stroke="white" stroke-width="1.25" stroke-linejoin="round"/>
<path d="M2.5 11.6667H5L7.08333 12.8126H7.91667C9.16667 12.8126 10 13.77 10 14.5832L7.5 15.4165L5 14.5832M9.99942 14.1667L13.5086 12.9969C14.3458 12.7179 15.2553 13.1398 15.5831 13.9591L15.8327 14.5834L8.33276 18.3334L2.5 16.6833" stroke="white" stroke-width="1.25" stroke-linejoin="round"/>
</svg>
