<svg width="20" height="20" viewBox="0 0 20 20" fill="none" xmlns="http://www.w3.org/2000/svg">
<path d="M15.0002 15.4167L15.2314 14.2615C15.3536 13.6505 15.6803 13.0873 15.7968 12.4752C15.821 12.3483 15.8335 12.2173 15.8335 12.0833C15.8335 10.9327 14.9008 10 13.7502 10C12.5996 10 11.6669 10.9327 11.6669 12.0833C11.6669 12.2173 11.6795 12.3483 11.7037 12.4752C11.8202 13.0873 12.1469 13.6505 12.2691 14.2615L12.5002 15.4167M15.0002 15.4167H12.5002M15.0002 15.4167L17.0805 15.9716C17.8125 16.1342 18.3333 16.7835 18.3333 17.5334C18.3333 17.9752 17.9751 18.3333 17.5334 18.3333H17.0805H10.4166H9.96654C9.52479 18.3333 9.16663 17.9752 9.16663 17.5334C9.16663 16.7835 9.68746 16.1342 10.4195 15.9716L12.5002 15.4167" stroke="white" stroke-width="1.25"/>
<path d="M14.1666 7.49999V6.66666C14.1666 4.30963 14.1666 3.13112 13.4344 2.39889C12.7021 1.66666 11.5236 1.66666 9.16663 1.66666H6.66663C4.3096 1.66666 3.13109 1.66666 2.39886 2.39889C1.66663 3.13112 1.66663 4.30963 1.66663 6.66666V13.3333C1.66663 15.6903 1.66663 16.8688 2.39886 17.6011C3.13109 18.3333 4.3096 18.3333 6.66663 18.3333" stroke="white" stroke-width="1.25" stroke-linecap="round"/>
<path d="M5.83337 7.22222C5.83337 7.22222 6.35421 7.22222 6.87504 8.33333C6.87504 8.33333 8.52946 5.55556 10 5" stroke="white" stroke-width="1.25" stroke-linecap="round" stroke-linejoin="round"/>
<path d="M5 11.6667H8.33333" stroke="white" stroke-width="1.25" stroke-linecap="round"/>
<path d="M5 14.1667H8.33333" stroke="white" stroke-width="1.25" stroke-linecap="round"/>
</svg>
