<svg width="34" height="34" viewBox="0 0 34 34" fill="none" xmlns="http://www.w3.org/2000/svg">
<rect width="34" height="34" rx="8" fill="#FFDECF"/>
<path d="M13.6667 13.4583C14.4154 13.4583 15.0831 13.4583 15.5788 13.5249C16.102 13.5953 16.5743 13.75 16.9538 14.1296C17.3334 14.5091 17.4881 14.9814 17.5585 15.5046C17.6251 16.0003 17.625 16.6246 17.625 17.3733V17.8333C17.625 18.1785 17.3452 18.4583 17 18.4583H10.3334C9.9882 18.4583 9.70837 18.1785 9.70837 17.8333V17.3733C9.70835 16.6246 9.70833 16.0003 9.77497 15.5046C9.84531 14.9814 10 14.5091 10.3796 14.1296C10.7591 13.75 11.2315 13.5953 11.7546 13.5249C12.2503 13.4583 12.918 13.4583 13.6667 13.4583Z" fill="#FF5000"/>
<path d="M18.875 17.8333C18.875 16.5677 19.901 15.5417 21.1667 15.5417C22.4323 15.5417 23.4583 16.5677 23.4583 17.8333C23.4583 19.099 22.4323 20.125 21.1667 20.125C19.901 20.125 18.875 19.099 18.875 17.8333Z" fill="#FF5000"/>
<path d="M11.375 10.3333C11.375 9.06768 12.401 8.04166 13.6667 8.04166C14.9323 8.04166 15.9583 9.06768 15.9583 10.3333C15.9583 11.599 14.9323 12.625 13.6667 12.625C12.401 12.625 11.375 11.599 11.375 10.3333Z" fill="#FF5000"/>
<path d="M8.19536 20.0328C8.34842 19.8291 8.59424 19.7083 8.85602 19.7083H15.3712C15.7217 19.7083 16.033 19.9235 16.1438 20.2425L17.587 24.3958H19.9355C20.3854 24.3958 20.75 24.7456 20.75 25.1771C20.75 25.6086 20.3854 25.9583 19.9355 25.9583H9.89783L8.08342 20.7367C8.00064 20.4984 8.04229 20.2365 8.19536 20.0328Z" fill="#FF5000"/>
<path d="M17.8145 21.6615C17.8145 21.23 18.179 20.8802 18.6288 20.8802H23.5152C24.8645 20.8802 25.9584 21.9295 25.9584 23.224V23.6146C25.9584 24.909 24.8645 25.9583 23.5152 25.9583H22.8145C22.3646 25.9583 22 25.6086 22 25.1771C22 24.7456 22.3646 24.3958 22.8145 24.3958H23.5152C23.965 24.3958 24.3296 24.0461 24.3296 23.6146V23.224C24.3296 22.7925 23.965 22.4427 23.5152 22.4427H18.6288C18.179 22.4427 17.8145 22.0929 17.8145 21.6615Z" fill="#FF5000"/>
</svg>
