<svg width="20" height="20" viewBox="0 0 20 20" fill="none" xmlns="http://www.w3.org/2000/svg">
<path d="M2.08337 6.82229C2.17009 5.07252 2.42952 3.98158 3.20557 3.20551C3.98164 2.42945 5.07258 2.17003 6.82235 2.08331M17.9167 6.82229C17.83 5.07252 17.5705 3.98158 16.7945 3.20551C16.0185 2.42945 14.9275 2.17003 13.1777 2.08331M13.1777 17.9166C14.9275 17.8299 16.0185 17.5705 16.7945 16.7945C17.5705 16.0184 17.83 14.9274 17.9167 13.1776M6.82234 17.9166C5.07258 17.8299 3.98164 17.5705 3.20557 16.7945C2.42952 16.0184 2.17009 14.9274 2.08337 13.1776" stroke="white" stroke-width="1.25" stroke-linecap="round" stroke-linejoin="round"/>
<path d="M13.75 12.9167V9.16669C13.75 7.09562 12.0711 5.41669 10 5.41669C7.92893 5.41669 6.25 7.09562 6.25 9.16669V12.9167" stroke="white" stroke-width="1.25" stroke-linecap="round" stroke-linejoin="round"/>
<path d="M11.25 10.4167V9.16669C11.25 8.47635 10.6903 7.91669 10 7.91669C9.30967 7.91669 8.75 8.47635 8.75 9.16669V13.75M11.25 12.9167V14.5834" stroke="white" stroke-width="1.25" stroke-linecap="round" stroke-linejoin="round"/>
</svg>
