<svg width="24" height="24" viewBox="0 0 24 24" fill="none" xmlns="http://www.w3.org/2000/svg">
<path d="M8.27527 15.4832C7.80315 15.1642 7.47634 14.6984 7.29788 14.0826L8.39368 13.631C8.49315 14.01 8.66682 14.3036 8.91474 14.5121C9.16107 14.7205 9.46107 14.8232 9.8116 14.8232C10.17 14.8232 10.4779 14.7142 10.7353 14.4963C10.9927 14.2784 11.1221 14.0005 11.1221 13.6642C11.1221 13.32 10.9863 13.0389 10.7147 12.821C10.4431 12.6032 10.1021 12.4942 9.69474 12.4942H9.0616V11.4094H9.63001C9.98054 11.4094 10.2758 11.3147 10.5158 11.1252C10.7558 10.9358 10.8758 10.6768 10.8758 10.3468C10.8758 10.0532 10.7684 9.81943 10.5537 9.64421C10.3389 9.46895 10.0674 9.38054 9.73735 9.38054C9.41523 9.38054 9.15948 9.46581 8.96996 9.63793C8.78049 9.81006 8.6431 10.0216 8.55629 10.2711L7.47155 9.81948C7.61523 9.41209 7.87894 9.05209 8.26576 8.74107C8.65262 8.43001 9.14682 8.27368 9.74682 8.27368C10.1905 8.27368 10.59 8.35895 10.9437 8.53107C11.2974 8.7032 11.5753 8.9416 11.7758 9.24474C11.9763 9.54948 12.0758 9.89054 12.0758 10.2695C12.0758 10.6563 11.9827 10.9832 11.7963 11.2516C11.61 11.52 11.3811 11.7253 11.1095 11.869V11.9337C11.4679 12.0837 11.76 12.3127 11.9905 12.6206C12.2195 12.9285 12.3347 13.2964 12.3347 13.7259C12.3347 14.1553 12.2258 14.539 12.0079 14.8753C11.79 15.2117 11.4884 15.4769 11.1063 15.6695C10.7226 15.8621 10.2916 15.9601 9.81315 15.9601C9.25894 15.9616 8.7474 15.8021 8.27527 15.4832ZM15.0063 10.0453L13.8031 10.9153L13.2016 10.0026L15.36 8.44581H16.1874V15.7895H15.0063V10.0453Z" fill="#0085F7"/>
<path d="M18.3158 18.3158H5.68419L3.87604 20.98L5.68419 24H18.3158L19.8096 20.7869L18.3158 18.3158Z" fill="#00A94B"/>
<path d="M18.3158 0H1.89473C0.847875 0 0 0.847875 0 1.89473V18.3158L2.84212 20.3363L5.68425 18.3158V5.6842H18.3158L20.2603 2.84208L18.3158 0Z" fill="#0085F7"/>
<path d="M0 18.3158V22.1053C0 23.1521 0.847875 24 1.89473 24H5.6842V18.3158H0Z" fill="#00802E"/>
<path d="M24 5.68419L21.1579 3.85541L18.3158 5.68419V18.3158L20.8718 19.65L24 18.3158V5.68419Z" fill="#FFBC00"/>
<path d="M24 5.6842V1.89473C24 0.847875 23.1521 0 22.1053 0H18.3158V5.6842H24Z" fill="#0067D5"/>
<path d="M18.3158 24L24 18.3158H18.3158V24Z" fill="#FF4131"/>
</svg>
