<svg width="34" height="34" viewBox="0 0 34 34" fill="none" xmlns="http://www.w3.org/2000/svg">
<rect width="34" height="34" rx="8" fill="#CFE2FF"/>
<path d="M10.5416 12.8333C10.5416 10.6472 12.3138 8.875 14.5 8.875C16.6861 8.875 18.4583 10.6472 18.4583 12.8333C18.4583 15.0195 16.6861 16.7917 14.5 16.7917C12.3138 16.7917 10.5416 15.0195 10.5416 12.8333Z" fill="#3585FF"/>
<path d="M8.04163 22.8333C8.04163 20.187 10.1869 18.0417 12.8333 18.0417H16.1666C18.813 18.0417 20.9583 20.187 20.9583 22.8333C20.9583 24.099 19.9323 25.125 18.6666 25.125H10.3333C9.06764 25.125 8.04163 24.099 8.04163 22.8333Z" fill="#3585FF"/>
<path d="M18.145 16.5537C18.5677 16.7077 19.024 16.7917 19.5 16.7917C21.6861 16.7917 23.4584 15.0195 23.4584 12.8333C23.4584 10.6472 21.6861 8.875 19.5 8.875C19.024 8.875 18.5677 8.95901 18.145 9.113C19.1098 10.0583 19.7084 11.3759 19.7084 12.8333C19.7084 14.2907 19.1098 15.6083 18.145 16.5537Z" fill="#3585FF"/>
<path d="M21.3667 25.125H23.6663C24.9319 25.125 25.9579 24.099 25.9579 22.8333C25.9579 20.187 23.8127 18.0417 21.1663 18.0417H19.8467C21.2826 19.1462 22.2079 20.8817 22.2079 22.8333C22.2079 23.7073 21.8914 24.5073 21.3667 25.125Z" fill="#3585FF"/>
</svg>
